<?xml version="1.0" encoding="UTF-8"?>
<svg width="30px" height="25px" viewBox="0 0 30 25" version="1.1" xmlns="http://www.w3.org/2000/svg" xmlns:xlink="http://www.w3.org/1999/xlink">
    <!-- Generator: Sketch 47.1 (45422) - http://www.bohemiancoding.com/sketch -->
    <title>Group</title>
    <desc>Created with Sketch.</desc>
    <defs></defs>
    <g id="Page-1" stroke="none" stroke-width="1" fill="none" fill-rule="evenodd">
        <g id="Home-Page---Resume" transform="translate(-319.000000, -100.000000)" fill-rule="nonzero" fill="#000000">
            <g id="Group-3" transform="translate(319.000000, 100.000000)">
                <g id="Group">
                    <path d="M11.4983657,0.126124927 C11.0949615,0.126124927 10.6051371,0.210039897 10.1808446,0.474363172 C9.75655212,0.738686446 9.40775338,1.22805172 9.40775372,1.86731615 L9.40775372,4.30498386 L0.348435323,4.30498386 C0.326706168,4.3029391 0.304832856,4.3029391 0.2831037,4.30498386 C0.11652305,4.33675069 -0.00298832108,4.48375841 -1.34280621e-13,4.6532221 L-1.34280621e-13,10.225034 L-1.34280621e-13,20.6721813 C-1.34280621e-13,22.7883207 1.71545093,24.502802 3.83278855,24.502802 L26.1326492,24.502802 C28.2499869,24.502802 29.9654378,22.7883207 29.9654378,20.6721813 L29.9654378,4.6532221 C29.9625211,4.5139673 29.8768685,4.38984138 29.7476657,4.33763119 C29.7369632,4.33346795 29.7260613,4.32983603 29.7149999,4.32674875 C29.6905042,4.31661986 29.664932,4.30931767 29.6387797,4.30498386 C29.6315224,4.30475711 29.6242598,4.30475711 29.6170025,4.30498386 L20.5576841,4.30498386 L20.5576841,1.86731615 C20.5576837,1.22805172 20.2088857,0.738686446 19.7845932,0.474363172 C19.3603007,0.210039897 18.8704763,0.126124927 18.4670721,0.126124927 L11.4983657,0.126124927 Z M11.4983657,0.822601416 L18.4670721,0.822601416 C18.7530731,0.822601416 19.1399363,0.901923123 19.4143807,1.07289765 C19.688825,1.24387218 19.8608134,1.46186584 19.8608134,1.86731615 L19.8608134,4.30498386 L10.1046244,4.30498386 L10.1046244,1.86731615 C10.1046244,1.46186584 10.2766127,1.24387218 10.5510571,1.07289765 C10.8255015,0.901923123 11.2123644,0.822601416 11.4983657,0.822601416 Z M0.696870646,5.00146035 L9.70174603,5.00146035 L29.2685671,5.00146035 L29.2685671,10.225034 C29.2685671,10.2664639 29.2376923,10.3526424 29.1052381,10.4753303 C28.9727842,10.5980181 28.7506274,10.7364323 28.4628105,10.8562158 C27.8871761,11.0957828 27.0554373,11.2697487 26.1326492,11.2697487 L17.0733308,11.2697487 L17.0733308,10.225034 C17.0733308,9.26642467 16.2903043,8.48384279 15.3311542,8.48384279 L14.6342836,8.48384279 C13.6751335,8.48384279 12.892107,9.26642467 12.892107,10.225034 L12.892107,11.2697487 L3.83278855,11.2697487 C2.91000046,11.2697487 2.0782613,11.0957828 1.50262733,10.8562158 C1.21481035,10.7364323 0.99265335,10.5980181 0.860199704,10.4753303 C0.727746058,10.3526424 0.696870646,10.2664639 0.696870646,10.225034 L0.696870646,5.00146035 Z M14.6342836,9.18031928 L15.3311542,9.18031928 C15.9162921,9.18031928 16.3764602,9.64022708 16.3764602,10.225034 L16.3764602,13.01094 C16.3764602,13.5957365 15.9162921,14.0556547 15.3311542,14.0556547 L14.6342836,14.0556547 C14.0491457,14.0556547 13.5889776,13.5957365 13.5889776,13.01094 L13.5889776,10.225034 C13.5889776,9.64022708 14.0491457,9.18031928 14.6342836,9.18031928 Z M0.696870646,11.226219 C0.856082627,11.3273707 1.03199637,11.4157135 1.23041223,11.4982801 C1.91437126,11.78293 2.82524531,11.9662252 3.83278855,11.9662252 L12.892107,11.9662252 L12.892107,13.01094 C12.892107,13.9695354 13.6751335,14.7521312 14.6342836,14.7521312 L15.3311542,14.7521312 C16.2903043,14.7521312 17.0733308,13.9695354 17.0733308,13.01094 L17.0733308,11.9662252 L26.1326492,11.9662252 C27.1401925,11.9662252 28.0510662,11.78293 28.7350256,11.4982801 C28.9334414,11.4157135 29.1093552,11.3273707 29.2685671,11.226219 L29.2685671,20.6721813 C29.2685671,22.4145217 27.8759743,23.8063255 26.1326492,23.8063255 L3.83278855,23.8063255 C2.0894635,23.8063255 0.696870646,22.4145217 0.696870646,20.6721813 L0.696870646,11.226219 Z" id="Shape"></path>
                </g>
            </g>
        </g>
    </g>
</svg>